<svg width="96" height="39" viewBox="0 0 96 39" fill="none" xmlns="http://www.w3.org/2000/svg">
<path d="M89.4654 27.2495H81.2968L83.7474 31.4941H63.718L73.7329 14.1481L77.2129 20.1754H85.381L73.7329 0L51.4653 38.5681H96L89.4654 27.2495Z" fill="#131B22"/>
<path d="M12.6336 30.8341H31.901L36.366 38.5677H44.5343L22.2672 0L0 38.5677H8.16873L12.6336 30.8341ZM16.7178 23.7601L22.2672 14.1481L27.8167 23.7601H16.7178Z" fill="#131B22"/>
<path d="M32.7809 38.5676H11.7537L14.4261 33.9388H30.1085L32.7809 38.5676Z" fill="#FFA900"/>
<path d="M70.2674 0.000183105L66.3023 6.86723L66.1828 7.07327H37.9858L40.0878 10.7146H64.0808L59.9963 17.7877H44.1706L52.0835 31.494L48.0006 38.5671L25.7322 0.000183105H70.2674Z" fill="#131B22"/>
</svg>
